<svg xmlns="http://www.w3.org/2000/svg" xmlns:xlink="http://www.w3.org/1999/xlink" viewBox="0,0,256,256" width="30px" height="30px" fill-rule="nonzero"><g fill="#333333" fill-rule="nonzero" stroke="none" stroke-width="1" stroke-linecap="butt" stroke-linejoin="miter" stroke-miterlimit="10" stroke-dasharray="" stroke-dashoffset="0" font-family="none" font-weight="none" font-size="none" text-anchor="none" style="mix-blend-mode: normal"><g transform="scale(8,8)"><path d="M26.963,7.254c-0.258,-1.089 -1.128,-1.959 -2.217,-2.217c-5.803,-1.376 -11.688,-1.376 -17.492,0c-1.089,0.258 -1.959,1.128 -2.217,2.217c-1.377,5.807 -1.377,11.693 0.002,17.497c0.257,1.086 1.124,1.953 2.209,2.21c2.904,0.689 5.828,1.034 8.752,1.034c2.924,0 5.848,-0.345 8.752,-1.034c1.085,-0.257 1.952,-1.124 2.209,-2.209c1.379,-5.805 1.379,-11.691 0.002,-17.498zM11.737,22.368c-0.023,0.158 -0.118,0.302 -0.259,0.376c-0.652,0.342 -1.304,0.342 -1.956,0c-0.141,-0.074 -0.236,-0.218 -0.259,-0.376c-0.351,-2.438 -0.351,-5.298 0,-7.736c0.023,-0.158 0.118,-0.302 0.259,-0.376c0.652,-0.342 1.304,-0.342 1.956,0c0.141,0.074 0.236,0.218 0.259,0.376c0.351,2.438 0.351,5.298 0,7.736zM10.5,13c-0.828,0 -1.5,-0.672 -1.5,-1.5c0,-0.828 0.672,-1.5 1.5,-1.5c0.828,0 1.5,0.672 1.5,1.5c0,0.828 -0.672,1.5 -1.5,1.5zM22.745,22.372c-0.024,0.15 -0.121,0.294 -0.256,0.365c-0.626,0.332 -1.501,0.349 -2.127,0.051c-0.193,-0.092 -0.284,-0.322 -0.247,-0.532c0.866,-4.998 -0.814,-5.694 -1.94,-5.366c-1.295,0.377 -1.767,1.525 -1.272,5.379c0.026,0.203 -0.066,0.423 -0.251,0.512c-0.627,0.303 -1.503,0.29 -2.13,-0.038c-0.141,-0.074 -0.236,-0.218 -0.259,-0.376c-0.35,-2.432 -0.351,-5.342 -0.002,-7.776c0.024,-0.167 0.128,-0.318 0.283,-0.385c0.946,-0.412 1.835,-0.109 1.982,0.057c0.114,0.128 0.135,0.648 0.118,0.921c1.291,-1.912 7.677,-2.596 6.101,7.188z"></path></g></g></svg>